<svg xmlns="http://www.w3.org/2000/svg" viewBox="0 0 40 40" width="40" height="40">
  <circle cx="20" cy="20" r="20" fill="#222222"/>
  <path fill="#ffffff" d="M20 9C13.925 9 9 13.925 9 20c0 4.867 3.149 8.98 7.521 10.436.55.096.756-.234.756-.522 0-.262-.014-1.128-.014-2.049-2.764.509-3.479-.674-3.699-1.292-.124-.316-.66-1.292-1.127-1.554-.385-.206-.935-.715-.014-.729.866-.014 1.485.798 1.691 1.127.99 1.664 2.571 1.196 3.204.908.096-.715.385-1.196.701-1.471-2.447-.275-5.005-1.224-5.005-5.431 0-1.196.426-2.186 1.127-2.956-.11-.275-.495-1.402.11-2.915 0 0 .921-.289 3.025 1.127.88-.247 1.815-.371 2.75-.371.935 0 1.87.124 2.75.371 2.104-1.43 3.025-1.127 3.025-1.127.605 1.513.22 2.64.11 2.915.701.77 1.127 1.746 1.127 2.956 0 4.221-2.571 5.156-5.019 5.431.399.344.743 1.004.743 2.035 0 1.471-.014 2.654-.014 3.025 0 .289.206.632.756.522C27.865 28.966 31 24.853 31 20c0-6.075-4.925-11-11-11z"/>
</svg>
